<svg width="360" height="360" viewBox="0 0 360 360" fill="none" xmlns="http://www.w3.org/2000/svg">
<path d="M108.75 135C108.75 128.786 113.787 123.75 120 123.75L165 123.75C171.213 123.75 176.25 128.787 176.25 135C176.25 141.213 171.213 146.25 165 146.25L120 146.25C113.787 146.25 108.75 141.213 108.75 135Z" fill="#161616"/>
<path d="M108.75 195C108.75 188.787 113.787 183.75 120 183.75H165C171.213 183.75 176.25 188.787 176.25 195C176.25 201.213 171.213 206.25 165 206.25H120C113.787 206.25 108.75 201.213 108.75 195Z" fill="#161616"/>
<path fill-rule="evenodd" clip-rule="evenodd" d="M199.934 51.9485L123.408 29.7355C106.692 24.8829 92.9138 20.8833 81.8517 19.4023C70.2668 17.8513 59.2824 18.7046 49.9088 26.0841C40.6361 33.3841 36.992 43.8914 35.3424 55.66C33.7493 67.0256 33.7496 81.7972 33.75 99.8832L33.75 318.75H30C23.7868 318.75 18.75 323.786 18.75 330C18.75 336.213 23.7868 341.25 30 341.25H44.9427C44.9618 341.25 44.9809 341.25 45 341.25C45.0192 341.25 45.0383 341.25 45.0574 341.25L239.943 341.25C239.962 341.25 239.981 341.25 240 341.25C240.019 341.25 240.038 341.25 240.057 341.25H330C336.213 341.25 341.25 336.213 341.25 330C341.25 323.786 336.213 318.75 330 318.75H326.253V216.502C326.253 206.295 326.253 197.678 325.436 190.652C324.567 183.187 322.673 176.348 318.097 170.197C313.521 164.047 307.515 160.267 300.614 157.29C294.119 154.488 285.865 152.013 276.088 149.08L251.25 141.628V121.895C251.25 111.071 251.251 102.012 250.416 94.6501C249.534 86.8761 247.62 79.7991 242.982 73.455C238.316 67.0736 232.174 63.1807 225.066 60.15C218.401 57.3079 209.938 54.8519 199.934 51.9485ZM251.25 165.119L269.011 170.447C279.564 173.613 286.55 175.727 291.701 177.95C296.582 180.055 298.691 181.807 300.046 183.628C301.401 185.449 302.472 187.972 303.087 193.252C303.735 198.825 303.753 206.124 303.753 217.141V318.75H251.25L251.25 165.119ZM228.75 318.75L228.75 122.528C228.75 110.906 228.733 103.13 228.059 97.185C227.416 91.5098 226.28 88.7334 224.819 86.7343C223.384 84.7725 221.204 82.9632 216.241 80.847C210.976 78.6022 203.837 76.51 193.027 73.3722L118.027 51.6023C100.194 46.4261 88.0505 42.9329 78.866 41.7033C70.0082 40.5175 66.3208 41.7994 63.8267 43.7629C61.2317 45.8059 58.9419 49.3855 57.6246 58.7833C56.2764 68.4013 56.25 81.5825 56.25 100.758L56.25 318.75H93.7501L93.7501 284.329C93.7493 277.836 93.7486 271.884 94.3996 267.042C95.1165 261.709 96.8032 256.074 101.439 251.438C106.074 246.803 111.71 245.116 117.042 244.399C121.884 243.748 127.837 243.749 134.329 243.75H150.671C157.164 243.749 163.116 243.748 167.958 244.399C173.29 245.116 178.926 246.803 183.562 251.438C188.197 256.074 189.884 261.709 190.601 267.042C191.252 271.884 191.251 277.836 191.25 284.327L191.25 318.75H228.75ZM116.25 285V318.75L168.75 318.75L168.75 285C168.75 277.611 168.726 273.201 168.301 270.04C168.107 268.591 167.877 267.866 167.743 267.539C167.712 267.464 167.687 267.414 167.672 267.385L167.652 267.348L167.615 267.328C167.586 267.313 167.536 267.288 167.461 267.257C167.134 267.123 166.409 266.893 164.96 266.699C161.799 266.274 157.389 266.25 150 266.25H135C127.611 266.25 123.201 266.274 120.04 266.699C118.592 266.893 117.866 267.123 117.54 267.257C117.464 267.288 117.414 267.313 117.385 267.328L117.349 267.348L117.328 267.385C117.313 267.414 117.289 267.464 117.257 267.539C117.123 267.866 116.894 268.591 116.699 270.04C116.274 273.201 116.25 277.611 116.25 285Z" fill="#161616"/>
<path d="M108.75 135C108.75 128.786 113.787 123.75 120 123.75L165 123.75C171.213 123.75 176.25 128.787 176.25 135C176.25 141.213 171.213 146.25 165 146.25L120 146.25C113.787 146.25 108.75 141.213 108.75 135Z" stroke="#161616"/>
<path d="M108.75 195C108.75 188.787 113.787 183.75 120 183.75H165C171.213 183.75 176.25 188.787 176.25 195C176.25 201.213 171.213 206.25 165 206.25H120C113.787 206.25 108.75 201.213 108.75 195Z" stroke="#161616"/>
<path fill-rule="evenodd" clip-rule="evenodd" d="M199.934 51.9485L123.408 29.7355C106.692 24.8829 92.9138 20.8833 81.8517 19.4023C70.2668 17.8513 59.2824 18.7046 49.9088 26.0841C40.6361 33.3841 36.992 43.8914 35.3424 55.66C33.7493 67.0256 33.7496 81.7972 33.75 99.8832L33.75 318.75H30C23.7868 318.75 18.75 323.786 18.75 330C18.75 336.213 23.7868 341.25 30 341.25H44.9427C44.9618 341.25 44.9809 341.25 45 341.25C45.0192 341.25 45.0383 341.25 45.0574 341.25L239.943 341.25C239.962 341.25 239.981 341.25 240 341.25C240.019 341.25 240.038 341.25 240.057 341.25H330C336.213 341.25 341.25 336.213 341.25 330C341.25 323.786 336.213 318.75 330 318.75H326.253V216.502C326.253 206.295 326.253 197.678 325.436 190.652C324.567 183.187 322.673 176.348 318.097 170.197C313.521 164.047 307.515 160.267 300.614 157.29C294.119 154.488 285.865 152.013 276.088 149.08L251.25 141.628V121.895C251.25 111.071 251.251 102.012 250.416 94.6501C249.534 86.8761 247.62 79.7991 242.982 73.455C238.316 67.0736 232.174 63.1807 225.066 60.15C218.401 57.3079 209.938 54.8519 199.934 51.9485ZM251.25 165.119L269.011 170.447C279.564 173.613 286.55 175.727 291.701 177.95C296.582 180.055 298.691 181.807 300.046 183.628C301.401 185.449 302.472 187.972 303.087 193.252C303.735 198.825 303.753 206.124 303.753 217.141V318.75H251.25L251.25 165.119ZM228.75 318.75L228.75 122.528C228.75 110.906 228.733 103.13 228.059 97.185C227.416 91.5098 226.28 88.7334 224.819 86.7343C223.384 84.7725 221.204 82.9632 216.241 80.847C210.976 78.6022 203.837 76.51 193.027 73.3722L118.027 51.6023C100.194 46.4261 88.0505 42.9329 78.866 41.7033C70.0082 40.5175 66.3208 41.7994 63.8267 43.7629C61.2317 45.8059 58.9419 49.3855 57.6246 58.7833C56.2764 68.4013 56.25 81.5825 56.25 100.758L56.25 318.75H93.7501L93.7501 284.329C93.7493 277.836 93.7486 271.884 94.3996 267.042C95.1165 261.709 96.8032 256.074 101.439 251.438C106.074 246.803 111.71 245.116 117.042 244.399C121.884 243.748 127.837 243.749 134.329 243.75H150.671C157.164 243.749 163.116 243.748 167.958 244.399C173.29 245.116 178.926 246.803 183.562 251.438C188.197 256.074 189.884 261.709 190.601 267.042C191.252 271.884 191.251 277.836 191.25 284.327L191.25 318.75H228.75ZM116.25 285V318.75L168.75 318.75L168.75 285C168.75 277.611 168.726 273.201 168.301 270.04C168.107 268.591 167.877 267.866 167.743 267.539C167.712 267.464 167.687 267.414 167.672 267.385L167.652 267.348L167.615 267.328C167.586 267.313 167.536 267.288 167.461 267.257C167.134 267.123 166.409 266.893 164.96 266.699C161.799 266.274 157.389 266.25 150 266.25H135C127.611 266.25 123.201 266.274 120.04 266.699C118.592 266.893 117.866 267.123 117.54 267.257C117.464 267.288 117.414 267.313 117.385 267.328L117.349 267.348L117.328 267.385C117.313 267.414 117.289 267.464 117.257 267.539C117.123 267.866 116.894 268.591 116.699 270.04C116.274 273.201 116.25 277.611 116.25 285Z" stroke="#161616"/>
</svg>
