<svg width="360" height="360" viewBox="0 0 360 360" fill="none" xmlns="http://www.w3.org/2000/svg">
<path d="M136.985 174.559C138.332 180.625 134.508 186.634 128.443 187.982L114.943 190.982C108.878 192.33 102.868 188.505 101.52 182.44C100.172 176.375 103.997 170.366 110.062 169.018L123.562 166.018C129.627 164.67 135.637 168.494 136.985 174.559Z" fill="#161616"/>
<path d="M223.02 174.559C224.368 168.494 230.378 164.67 236.443 166.018L249.943 169.018C256.008 170.366 259.832 176.375 258.484 182.44C257.137 188.505 251.127 192.33 245.062 190.982L231.562 187.982C225.497 186.634 221.672 180.625 223.02 174.559Z" fill="#161616"/>
<path fill-rule="evenodd" clip-rule="evenodd" d="M18.75 330C18.75 323.787 23.7868 318.75 30 318.75H33.7501L33.75 89.309C33.7494 84.2883 33.7489 79.5932 34.2093 75.6761C34.7211 71.3213 35.907 66.7435 39.0948 62.5406C42.2843 58.3356 46.3737 55.9612 50.4316 54.2982C54.0778 52.804 58.5952 51.5471 63.4205 50.2045L168.954 20.828L169.732 20.6103C172.926 19.7144 176.363 18.75 180 18.75C183.637 18.75 187.075 19.7144 190.268 20.6103L191.046 20.828L296.579 50.2042C301.404 51.5468 305.922 52.8041 309.569 54.2982C313.626 55.9612 317.716 58.3356 320.905 62.5406C324.093 66.7435 325.279 71.3212 325.791 75.6761C326.251 79.5929 326.251 84.2873 326.25 89.3075L326.25 194.666C326.256 194.88 326.256 195.096 326.25 195.313L326.25 318.75H330C336.213 318.75 341.25 323.787 341.25 330C341.25 336.213 336.213 341.25 330 341.25L30 341.25C23.7868 341.25 18.75 336.213 18.75 330ZM62.8119 179.518L56.2501 180.976L56.2501 143.978L168.75 118.352V155.976L164.062 157.018C157.997 158.366 154.172 164.375 155.52 170.44C156.854 176.441 162.751 180.248 168.75 179.023L168.75 318.75L56.2501 318.75L56.2501 204.025L67.6929 201.482C73.7581 200.134 77.5823 194.125 76.2345 188.059C74.8867 181.994 68.8772 178.17 62.8119 179.518ZM191.25 318.75L191.25 179.022C197.251 180.25 203.151 176.443 204.485 170.44C205.832 164.375 202.008 158.366 195.943 157.018L191.25 155.975V118.349L303.75 143.974V180.975L297.193 179.518C291.128 178.17 285.118 181.994 283.77 188.059C282.422 194.125 286.247 200.134 292.312 201.482L303.75 204.024V318.75H191.25ZM56.2501 120.901L56.2501 89.8606C56.2501 84.0956 56.2681 80.7469 56.5554 78.3027C56.6854 77.197 56.8382 76.6231 56.9319 76.3499C56.9751 76.2239 57.0101 76.1558 57.0101 76.1558L57.0215 76.1378L57.0345 76.1233C57.0345 76.1233 57.0884 76.0732 57.1964 75.9988C57.4307 75.8376 57.938 75.5381 58.9636 75.1178C61.2327 74.188 64.4433 73.2753 69.9877 71.732L174.988 42.5039C177.092 41.918 178.256 41.5978 179.149 41.4001C179.545 41.3123 179.769 41.2765 179.886 41.2613L179.998 41.25L180.014 41.2507L180.114 41.2613C180.232 41.2765 180.455 41.3123 180.851 41.4001C181.744 41.5978 182.908 41.918 185.013 42.5039L290.013 71.732C295.557 73.2753 298.767 74.188 301.037 75.1178C302.062 75.5381 302.57 75.8376 302.804 75.9988C302.912 76.0732 302.966 76.1233 302.966 76.1233L302.979 76.1378L302.99 76.1558L303.016 76.2131C303.03 76.2456 303.048 76.2916 303.068 76.3499C303.162 76.6231 303.315 77.197 303.445 78.3027C303.732 80.7469 303.75 84.0956 303.75 89.8606V120.897L189.015 94.7632C183.084 93.4123 176.933 93.4123 171.002 94.7632L56.2501 120.901Z" fill="#161616"/>
<path d="M136.985 174.559C138.332 180.625 134.508 186.634 128.443 187.982L114.943 190.982C108.878 192.33 102.868 188.505 101.52 182.44C100.172 176.375 103.997 170.366 110.062 169.018L123.562 166.018C129.627 164.67 135.637 168.494 136.985 174.559Z" stroke="#161616"/>
<path d="M223.02 174.559C224.368 168.494 230.378 164.67 236.443 166.018L249.943 169.018C256.008 170.366 259.832 176.375 258.484 182.44C257.137 188.505 251.127 192.33 245.062 190.982L231.562 187.982C225.497 186.634 221.672 180.625 223.02 174.559Z" stroke="#161616"/>
<path fill-rule="evenodd" clip-rule="evenodd" d="M18.75 330C18.75 323.787 23.7868 318.75 30 318.75H33.7501L33.75 89.309C33.7494 84.2883 33.7489 79.5932 34.2093 75.6761C34.7211 71.3213 35.907 66.7435 39.0948 62.5406C42.2843 58.3356 46.3737 55.9612 50.4316 54.2982C54.0778 52.804 58.5952 51.5471 63.4205 50.2045L168.954 20.828L169.732 20.6103C172.926 19.7144 176.363 18.75 180 18.75C183.637 18.75 187.075 19.7144 190.268 20.6103L191.046 20.828L296.579 50.2042C301.404 51.5468 305.922 52.8041 309.569 54.2982C313.626 55.9612 317.716 58.3356 320.905 62.5406C324.093 66.7435 325.279 71.3212 325.791 75.6761C326.251 79.5929 326.251 84.2873 326.25 89.3075L326.25 194.666C326.256 194.88 326.256 195.096 326.25 195.313L326.25 318.75H330C336.213 318.75 341.25 323.787 341.25 330C341.25 336.213 336.213 341.25 330 341.25L30 341.25C23.7868 341.25 18.75 336.213 18.75 330ZM62.8119 179.518L56.2501 180.976L56.2501 143.978L168.75 118.352V155.976L164.062 157.018C157.997 158.366 154.172 164.375 155.52 170.44C156.854 176.441 162.751 180.248 168.75 179.023L168.75 318.75L56.2501 318.75L56.2501 204.025L67.6929 201.482C73.7581 200.134 77.5823 194.125 76.2345 188.059C74.8867 181.994 68.8772 178.17 62.8119 179.518ZM191.25 318.75L191.25 179.022C197.251 180.25 203.151 176.443 204.485 170.44C205.832 164.375 202.008 158.366 195.943 157.018L191.25 155.975V118.349L303.75 143.974V180.975L297.193 179.518C291.128 178.17 285.118 181.994 283.77 188.059C282.422 194.125 286.247 200.134 292.312 201.482L303.75 204.024V318.75H191.25ZM56.2501 120.901L56.2501 89.8606C56.2501 84.0956 56.2681 80.7469 56.5554 78.3027C56.6854 77.197 56.8382 76.6231 56.9319 76.3499C56.9751 76.2239 57.0101 76.1558 57.0101 76.1558L57.0215 76.1378L57.0345 76.1233C57.0345 76.1233 57.0884 76.0732 57.1964 75.9988C57.4307 75.8376 57.938 75.5381 58.9636 75.1178C61.2327 74.188 64.4433 73.2753 69.9877 71.732L174.988 42.5039C177.092 41.918 178.256 41.5978 179.149 41.4001C179.545 41.3123 179.769 41.2765 179.886 41.2613L179.998 41.25L180.014 41.2507L180.114 41.2613C180.232 41.2765 180.455 41.3123 180.851 41.4001C181.744 41.5978 182.908 41.918 185.013 42.5039L290.013 71.732C295.557 73.2753 298.767 74.188 301.037 75.1178C302.062 75.5381 302.57 75.8376 302.804 75.9988C302.912 76.0732 302.966 76.1233 302.966 76.1233L302.979 76.1378L302.99 76.1558L303.016 76.2131C303.03 76.2456 303.048 76.2916 303.068 76.3499C303.162 76.6231 303.315 77.197 303.445 78.3027C303.732 80.7469 303.75 84.0956 303.75 89.8606V120.897L189.015 94.7632C183.084 93.4123 176.933 93.4123 171.002 94.7632L56.2501 120.901Z" stroke="#161616"/>
</svg>
