<svg width="360" height="360" viewBox="0 0 360 360" fill="none" xmlns="http://www.w3.org/2000/svg">
<path d="M172.5 183.75C166.287 183.75 161.25 188.787 161.25 195C161.25 201.213 166.287 206.25 172.5 206.25H187.5C193.713 206.25 198.75 201.213 198.75 195C198.75 188.787 193.713 183.75 187.5 183.75H172.5Z" fill="#161616"/>
<path d="M172.5 228.75C166.287 228.75 161.25 233.787 161.25 240C161.25 246.213 166.287 251.25 172.5 251.25H187.5C193.713 251.25 198.75 246.213 198.75 240C198.75 233.787 193.713 228.75 187.5 228.75H172.5Z" fill="#161616"/>
<path fill-rule="evenodd" clip-rule="evenodd" d="M108.75 194.22L108.75 318.75H63.75L63.75 248.943C69.2698 246.588 73.9142 242.624 77.4099 237.963C83.0773 230.407 86.25 220.483 86.25 210C86.25 199.517 83.0773 189.593 77.4099 182.037C71.7399 174.477 63.0481 168.75 52.5 168.75C41.9519 168.75 33.2601 174.477 27.5901 182.037C21.9227 189.593 18.75 199.517 18.75 210C18.75 220.483 21.9227 230.407 27.5901 237.963C31.0858 242.624 35.7302 246.588 41.25 248.943L41.25 318.75H30C23.7868 318.75 18.75 323.787 18.75 330C18.75 336.213 23.7868 341.25 30 341.25H119.974L120 341.25L240 341.25L240.026 341.25H330C336.213 341.25 341.25 336.213 341.25 330C341.25 323.787 336.213 318.75 330 318.75H326.25L326.25 111.675C326.251 103.955 326.251 97.2099 325.58 91.558C324.849 85.4011 323.252 79.7098 319.564 74.2978C315.978 69.0335 311.187 65.1776 305.627 61.6387C300.272 58.2308 293.38 54.6215 285.025 50.2467L261.703 38.0337C248.616 31.1802 237.824 25.5287 228.984 22.2492C219.957 18.9001 210.483 17.0345 201.203 20.9355C191.097 25.184 186.963 33.7788 185.265 42.8022C183.748 50.8632 183.749 61.4396 183.75 73.4355L183.75 123.75L179.22 123.75C165.743 123.749 154.505 123.749 145.583 124.949C136.166 126.215 127.664 129 120.832 135.832C114 142.664 111.215 151.166 109.949 160.583C108.749 169.504 108.75 180.743 108.75 194.22ZM239.168 135.832C246 142.664 248.785 151.166 250.051 160.583C251.251 169.504 251.25 180.743 251.25 194.22L251.25 318.75H303.75V221.25H285C278.787 221.25 273.75 216.213 273.75 210C273.75 203.787 278.787 198.75 285 198.75H303.75V176.25H285C278.787 176.25 273.75 171.213 273.75 165C273.75 158.787 278.787 153.75 285 153.75H303.75L303.75 131.25H285C278.787 131.25 273.75 126.213 273.75 120C273.75 113.787 278.787 108.75 285 108.75H303.748C303.735 102.232 303.66 97.7728 303.237 94.2102C302.785 90.3991 302.016 88.5013 300.97 86.9667C299.824 85.2843 297.888 83.3839 293.546 80.6202C289.089 77.7838 283.047 74.6094 274.157 69.9539L251.969 58.3349C238 51.0197 228.487 46.0633 221.158 43.3443C213.857 40.6359 211.206 41.1379 209.923 41.6773L209.822 41.7161C209.313 41.9031 208.256 42.2916 207.376 46.9636C206.298 52.6942 206.25 61.1077 206.25 74.5114L206.25 124.189C209.158 124.364 211.881 124.608 214.417 124.949C223.834 126.215 232.336 129 239.168 135.832ZM228.75 195L228.75 318.75L131.25 318.75V195C131.25 180.54 131.274 170.826 132.248 163.581C133.179 156.659 134.787 153.696 136.742 151.742C138.697 149.787 141.659 148.179 148.581 147.248C155.826 146.274 165.54 146.25 180 146.25C194.46 146.25 204.174 146.274 211.419 147.248C218.341 148.179 221.304 149.787 223.258 151.742C225.213 153.696 226.821 156.659 227.752 163.581C228.726 170.826 228.75 180.54 228.75 195ZM52.5 228.75C50.6217 228.75 48.0635 227.761 45.5901 224.463C43.1141 221.162 41.25 216.085 41.25 210C41.25 203.914 43.1141 198.838 45.5901 195.537C48.0635 192.239 50.6217 191.25 52.5 191.25C54.3783 191.25 56.9365 192.239 59.4099 195.537C61.8859 198.838 63.75 203.914 63.75 210C63.75 216.085 61.8859 221.162 59.4099 224.463C56.9365 227.761 54.3783 228.75 52.5 228.75Z" fill="#161616"/>
<path d="M172.5 183.75C166.287 183.75 161.25 188.787 161.25 195C161.25 201.213 166.287 206.25 172.5 206.25H187.5C193.713 206.25 198.75 201.213 198.75 195C198.75 188.787 193.713 183.75 187.5 183.75H172.5Z" stroke="#161616"/>
<path d="M172.5 228.75C166.287 228.75 161.25 233.787 161.25 240C161.25 246.213 166.287 251.25 172.5 251.25H187.5C193.713 251.25 198.75 246.213 198.75 240C198.75 233.787 193.713 228.75 187.5 228.75H172.5Z" stroke="#161616"/>
<path fill-rule="evenodd" clip-rule="evenodd" d="M108.75 194.22L108.75 318.75H63.75L63.75 248.943C69.2698 246.588 73.9142 242.624 77.4099 237.963C83.0773 230.407 86.25 220.483 86.25 210C86.25 199.517 83.0773 189.593 77.4099 182.037C71.7399 174.477 63.0481 168.75 52.5 168.75C41.9519 168.75 33.2601 174.477 27.5901 182.037C21.9227 189.593 18.75 199.517 18.75 210C18.75 220.483 21.9227 230.407 27.5901 237.963C31.0858 242.624 35.7302 246.588 41.25 248.943L41.25 318.75H30C23.7868 318.75 18.75 323.787 18.75 330C18.75 336.213 23.7868 341.25 30 341.25H119.974L120 341.25L240 341.25L240.026 341.25H330C336.213 341.25 341.25 336.213 341.25 330C341.25 323.787 336.213 318.75 330 318.75H326.25L326.25 111.675C326.251 103.955 326.251 97.2099 325.58 91.558C324.849 85.4011 323.252 79.7098 319.564 74.2978C315.978 69.0335 311.187 65.1776 305.627 61.6387C300.272 58.2308 293.38 54.6215 285.025 50.2467L261.703 38.0337C248.616 31.1802 237.824 25.5287 228.984 22.2492C219.957 18.9001 210.483 17.0345 201.203 20.9355C191.097 25.184 186.963 33.7788 185.265 42.8022C183.748 50.8632 183.749 61.4396 183.75 73.4355L183.75 123.75L179.22 123.75C165.743 123.749 154.505 123.749 145.583 124.949C136.166 126.215 127.664 129 120.832 135.832C114 142.664 111.215 151.166 109.949 160.583C108.749 169.504 108.75 180.743 108.75 194.22ZM239.168 135.832C246 142.664 248.785 151.166 250.051 160.583C251.251 169.504 251.25 180.743 251.25 194.22L251.25 318.75H303.75V221.25H285C278.787 221.25 273.75 216.213 273.75 210C273.75 203.787 278.787 198.75 285 198.75H303.75V176.25H285C278.787 176.25 273.75 171.213 273.75 165C273.75 158.787 278.787 153.75 285 153.75H303.75L303.75 131.25H285C278.787 131.25 273.75 126.213 273.75 120C273.75 113.787 278.787 108.75 285 108.75H303.748C303.735 102.232 303.66 97.7728 303.237 94.2102C302.785 90.3991 302.016 88.5013 300.97 86.9667C299.824 85.2843 297.888 83.3839 293.546 80.6202C289.089 77.7838 283.047 74.6094 274.157 69.9539L251.969 58.3349C238 51.0197 228.487 46.0633 221.158 43.3443C213.857 40.6359 211.206 41.1379 209.923 41.6773L209.822 41.7161C209.313 41.9031 208.256 42.2916 207.376 46.9636C206.298 52.6942 206.25 61.1077 206.25 74.5114L206.25 124.189C209.158 124.364 211.881 124.608 214.417 124.949C223.834 126.215 232.336 129 239.168 135.832ZM228.75 195L228.75 318.75L131.25 318.75V195C131.25 180.54 131.274 170.826 132.248 163.581C133.179 156.659 134.787 153.696 136.742 151.742C138.697 149.787 141.659 148.179 148.581 147.248C155.826 146.274 165.54 146.25 180 146.25C194.46 146.25 204.174 146.274 211.419 147.248C218.341 148.179 221.304 149.787 223.258 151.742C225.213 153.696 226.821 156.659 227.752 163.581C228.726 170.826 228.75 180.54 228.75 195ZM52.5 228.75C50.6217 228.75 48.0635 227.761 45.5901 224.463C43.1141 221.162 41.25 216.085 41.25 210C41.25 203.914 43.1141 198.838 45.5901 195.537C48.0635 192.239 50.6217 191.25 52.5 191.25C54.3783 191.25 56.9365 192.239 59.4099 195.537C61.8859 198.838 63.75 203.914 63.75 210C63.75 216.085 61.8859 221.162 59.4099 224.463C56.9365 227.761 54.3783 228.75 52.5 228.75Z" stroke="#161616"/>
</svg>
