<svg width="360" height="360" viewBox="0 0 360 360" fill="none" xmlns="http://www.w3.org/2000/svg">
<path fill-rule="evenodd" clip-rule="evenodd" d="M243.776 69.6322C243.463 77.5324 245.97 85.3655 251.097 93.1242L247.127 180.447C241.793 172.032 235.626 164.794 229.004 158.346C219.673 149.261 209.518 141.832 200.409 135.168L198.272 133.603C188.347 126.327 179.968 119.957 173.448 112.561C171.222 110.035 168.115 108.747 164.994 108.75C161.873 108.747 158.766 110.035 156.54 112.561C150.02 119.957 141.641 126.327 131.716 133.603L129.58 135.168C120.47 141.832 110.316 149.261 100.985 158.346C81.7036 177.119 66.281 202.596 64.0324 244.289C55.5298 245.292 47.5563 248.027 41.9077 255.088C38.0779 259.875 36.1637 265.649 35.117 271.605C34.0718 277.552 33.75 284.553 33.75 292.5V318.75H30C23.7868 318.75 18.75 323.787 18.75 330C18.75 336.213 23.7868 341.25 30 341.25L254.928 341.25L255 341.25H315L315.072 341.25H330C336.213 341.25 341.25 336.213 341.25 330C341.25 323.787 336.213 318.75 330 318.75H325.904L318.856 93.1968C324.015 85.4144 326.539 77.5572 326.224 69.6324C325.866 60.5925 321.876 53.2285 317.461 47.5041C313.296 42.1048 308.109 37.3727 303.986 33.611L303.509 33.1759C298.823 28.8977 295.933 26.1385 294.384 23.7956C292.301 20.645 288.777 18.7499 285 18.75C281.223 18.7501 277.698 20.6454 275.615 23.796C274.067 26.1387 271.177 28.8978 266.491 33.1759L266.014 33.6115C261.891 37.3731 256.704 42.1051 252.54 47.5041C248.124 53.2285 244.135 60.5924 243.776 69.6322ZM75 266.25C74.9817 266.25 74.9635 266.25 74.9452 266.25C62.4613 266.256 60.2267 268.207 59.4773 269.143C58.9096 269.853 57.9776 271.515 57.2774 275.499C56.5757 279.492 56.25 284.934 56.25 292.5L56.25 318.75L273.75 318.75L273.75 292.5C273.75 284.934 273.424 279.492 272.723 275.499C272.022 271.515 271.09 269.853 270.523 269.143C269.774 268.208 267.544 266.261 255.103 266.25L75 266.25ZM86.6023 243.75C88.8497 208.991 101.568 189.181 116.681 174.467C124.831 166.532 133.769 159.987 143.098 153.157L145.02 151.749C151.68 146.866 158.607 141.723 164.994 135.927C171.381 141.723 178.308 146.866 184.968 151.749L186.89 153.157C196.219 159.987 205.158 166.532 213.307 174.467C228.42 189.181 241.138 208.991 243.386 243.75L86.6023 243.75ZM296.596 101.25L273.25 101.25L266.744 244.386C274.955 245.463 282.616 248.243 288.092 255.088C291.922 259.875 293.836 265.649 294.883 271.605C295.928 277.552 296.25 284.553 296.25 292.5V318.75H303.393L296.596 101.25ZM282.058 49.4308C282.993 48.5781 283.985 47.6723 285 46.7209C286.015 47.6722 287.008 48.5779 287.942 49.4306L288.339 49.7929C292.874 53.9324 296.74 57.4805 299.645 61.2459C302.46 64.8965 303.636 67.845 303.742 70.5239C303.816 72.3941 303.406 75.0726 301.341 78.75L268.659 78.75C266.594 75.0727 266.184 72.3942 266.258 70.524C266.365 67.8451 267.54 64.8965 270.356 61.2459C273.26 57.4804 277.127 53.9324 281.661 49.7928L282.058 49.4308Z" fill="#161616"/>
</svg>
