<svg width="360" height="360" viewBox="0 0 360 360" fill="none" xmlns="http://www.w3.org/2000/svg">
<path d="M212.898 44.0337C179.398 12.574 126.148 8.36189 80.4623 43.2979L80.3436 43.3887L80.2274 43.4826C29.7967 84.2151 23.0886 135.842 20.319 159.845L20.302 160.015C15.6407 206.628 23.0554 259.286 30.503 288.146C32.0556 294.162 38.1912 297.78 44.2073 296.228C50.2234 294.675 53.8418 288.539 52.2893 282.523C45.3413 255.6 38.3607 205.706 42.6819 162.338C45.3149 139.538 51.239 95.8891 94.2482 61.0807C131.895 32.3669 172.706 37.1562 197.495 60.4352C197.918 60.8324 198.145 61.0256 198.34 61.1909C198.636 61.4421 198.856 61.6288 199.569 62.3682C200.491 63.3236 201.928 64.95 203.786 67.5289C210.372 77.9705 213.172 88.1318 213.679 96.144C213.995 101.148 213.529 105.306 212.856 108.23C210.333 106.933 207.713 105.289 204.373 103.192C202.155 101.8 199.619 100.209 196.584 98.3877C186.669 92.4384 175.887 91.8915 165.676 93.2658C156.034 94.5636 145.605 97.781 135.43 100.921L135.072 101.031C123.505 102.922 116.588 98.7496 110.918 95.3295C110.252 94.9275 109.603 94.5357 108.965 94.1656C103.592 91.0457 96.7072 92.8723 93.5873 98.2454C90.4674 103.619 92.294 110.503 97.6671 113.623C98.1169 113.885 98.6423 114.208 99.2426 114.578C105.317 118.319 119.056 126.78 139.689 123.067L140.36 122.946L141.011 122.745C145.855 121.251 150.27 119.891 154.351 118.747C161.288 197.237 227.205 258.784 307.498 258.784H329.998C336.211 258.784 341.248 253.747 341.248 247.534C341.248 241.321 336.211 236.284 329.998 236.284H307.498C238.435 236.284 181.831 182.943 176.637 115.212C180.016 115.456 182.706 116.3 185.008 117.681C186.982 118.866 189.061 120.165 191.141 121.464C195.234 124.022 199.333 126.584 202.655 128.285C205.33 129.655 208.613 131.092 212.149 131.668C215.207 132.166 218.805 132.062 222.336 130.518C223.905 130.063 225.192 129.362 226.121 128.727C228.01 127.434 229.306 125.856 230.134 124.674C231.826 122.261 233.033 119.375 233.896 116.585C235.672 110.84 236.673 103.253 236.134 94.7249C235.377 82.7528 231.29 68.839 222.607 55.1946L222.446 54.9405L222.271 54.6955C219.714 51.1166 217.513 48.5609 215.76 46.7438C214.239 45.1675 212.355 43.524 212.898 44.0337Z" fill="#161616"/>
<path d="M117.244 179.983C117.216 173.794 112.191 168.785 105.995 168.784C99.7816 168.784 94.7444 173.82 94.7439 180.033V180.057L94.744 180.085L94.7444 180.153L94.7466 180.339C94.7489 180.485 94.753 180.674 94.7604 180.905C94.7752 181.365 94.8031 181.99 94.8557 182.762C94.9607 184.303 95.1648 186.439 95.5624 189.015C96.3539 194.145 97.9338 201.161 101.116 208.757C107.556 224.127 120.643 241.915 146.36 250.682C152.241 252.687 158.634 249.545 160.639 243.664C162.643 237.783 159.501 231.391 153.62 229.386C135.337 223.153 126.426 210.941 121.868 200.062C119.551 194.532 118.382 189.361 117.799 185.584C117.51 183.708 117.37 182.211 117.304 181.232C117.27 180.744 117.255 180.388 117.249 180.182L117.244 179.983Z" fill="#161616"/>
<path d="M324.495 310.822C306.245 321.063 282.698 321.069 264.444 310.841C248.207 301.588 227.226 301.434 210.832 310.381C210.16 310.679 209.332 311.123 208.478 311.777C190.379 321.353 167.501 321.09 150.021 311.134L149.931 311.083C133.995 302.199 114.134 301.705 97.9734 309.822C97.1596 310.058 96.3598 310.39 95.5891 310.822C77.3293 321.069 53.7647 321.069 35.5051 310.822C30.0867 307.782 23.2294 309.71 20.1889 315.128C17.1484 320.546 19.0761 327.404 24.4945 330.444C48.8178 344.093 79.5367 344.515 104.255 331.709C105.082 331.466 105.893 331.124 106.674 330.678C116.234 325.218 128.914 325.145 138.935 330.713C163.765 344.832 195.678 344.782 220.735 330.72L223.308 329.276C232.637 324.942 244.421 325.317 253.327 330.402L253.4 330.444C278.498 344.528 310.406 344.528 335.505 330.444C340.923 327.404 342.851 320.547 339.811 315.128C336.77 309.71 329.913 307.782 324.495 310.822Z" fill="#161616"/>
<path d="M212.898 44.0337C179.398 12.574 126.148 8.36189 80.4623 43.2979L80.3436 43.3887L80.2274 43.4826C29.7967 84.2151 23.0886 135.842 20.319 159.845L20.302 160.015C15.6407 206.628 23.0554 259.286 30.503 288.146C32.0556 294.162 38.1912 297.78 44.2073 296.228C50.2234 294.675 53.8418 288.539 52.2893 282.523C45.3413 255.6 38.3607 205.706 42.6819 162.338C45.3149 139.538 51.239 95.8891 94.2482 61.0807C131.895 32.3669 172.706 37.1562 197.495 60.4352C197.918 60.8324 198.145 61.0256 198.34 61.1909C198.636 61.4421 198.856 61.6288 199.569 62.3682C200.491 63.3236 201.928 64.95 203.786 67.5289C210.372 77.9705 213.172 88.1318 213.679 96.144C213.995 101.148 213.529 105.306 212.856 108.23C210.333 106.933 207.713 105.289 204.373 103.192C202.155 101.8 199.619 100.209 196.584 98.3877C186.669 92.4384 175.887 91.8915 165.676 93.2658C156.034 94.5636 145.605 97.781 135.43 100.921L135.072 101.031C123.505 102.922 116.588 98.7496 110.918 95.3295C110.252 94.9275 109.603 94.5357 108.965 94.1656C103.592 91.0457 96.7072 92.8723 93.5873 98.2454C90.4674 103.619 92.294 110.503 97.6671 113.623C98.1169 113.885 98.6423 114.208 99.2426 114.578C105.317 118.319 119.056 126.78 139.689 123.067L140.36 122.946L141.011 122.745C145.855 121.251 150.27 119.891 154.351 118.747C161.288 197.237 227.205 258.784 307.498 258.784H329.998C336.211 258.784 341.248 253.747 341.248 247.534C341.248 241.321 336.211 236.284 329.998 236.284H307.498C238.435 236.284 181.831 182.943 176.637 115.212C180.016 115.456 182.706 116.3 185.008 117.681C186.982 118.866 189.061 120.165 191.141 121.464C195.234 124.022 199.333 126.584 202.655 128.285C205.33 129.655 208.613 131.092 212.149 131.668C215.207 132.166 218.805 132.062 222.336 130.518C223.905 130.063 225.192 129.362 226.121 128.727C228.01 127.434 229.306 125.856 230.134 124.674C231.826 122.261 233.033 119.375 233.896 116.585C235.672 110.84 236.673 103.253 236.134 94.7249C235.377 82.7528 231.29 68.839 222.607 55.1946L222.446 54.9405L222.271 54.6955C219.714 51.1166 217.513 48.5609 215.76 46.7438C214.239 45.1675 212.355 43.524 212.898 44.0337Z" stroke="#161616"/>
<path d="M117.244 179.983C117.216 173.794 112.191 168.785 105.995 168.784C99.7816 168.784 94.7444 173.82 94.7439 180.033V180.057L94.744 180.085L94.7444 180.153L94.7466 180.339C94.7489 180.485 94.753 180.674 94.7604 180.905C94.7752 181.365 94.8031 181.99 94.8557 182.762C94.9607 184.303 95.1648 186.439 95.5624 189.015C96.3539 194.145 97.9338 201.161 101.116 208.757C107.556 224.127 120.643 241.915 146.36 250.682C152.241 252.687 158.634 249.545 160.639 243.664C162.643 237.783 159.501 231.391 153.62 229.386C135.337 223.153 126.426 210.941 121.868 200.062C119.551 194.532 118.382 189.361 117.799 185.584C117.51 183.708 117.37 182.211 117.304 181.232C117.27 180.744 117.255 180.388 117.249 180.182L117.244 179.983Z" stroke="#161616"/>
<path d="M324.495 310.822C306.245 321.063 282.698 321.069 264.444 310.841C248.207 301.588 227.226 301.434 210.832 310.381C210.16 310.679 209.332 311.123 208.478 311.777C190.379 321.353 167.501 321.09 150.021 311.134L149.931 311.083C133.995 302.199 114.134 301.705 97.9734 309.822C97.1596 310.058 96.3598 310.39 95.5891 310.822C77.3293 321.069 53.7647 321.069 35.5051 310.822C30.0867 307.782 23.2294 309.71 20.1889 315.128C17.1484 320.546 19.0761 327.404 24.4945 330.444C48.8178 344.093 79.5367 344.515 104.255 331.709C105.082 331.466 105.893 331.124 106.674 330.678C116.234 325.218 128.914 325.145 138.935 330.713C163.765 344.832 195.678 344.782 220.735 330.72L223.308 329.276C232.637 324.942 244.421 325.317 253.327 330.402L253.4 330.444C278.498 344.528 310.406 344.528 335.505 330.444C340.923 327.404 342.851 320.547 339.811 315.128C336.77 309.71 329.913 307.782 324.495 310.822Z" stroke="#161616"/>
</svg>
