<svg width="23" height="22" fill="none" xmlns="http://www.w3.org/2000/svg">
    <path
        d="M10.121 8a1 1 0 100 2h.015a1 1 0 100-2h-.015zM10.125 14a1 1 0 100 2h.015a1 1 0 100-2h-.015zM6.125 11.25a.75.75 0 000 1.5h8a.75.75 0 000-1.5h-8z"
        fill="#fff" fill-opacity="1" />
    <path fill-rule="evenodd" clip-rule="evenodd"
        d="M14.375 5.5a2.25 2.25 0 104.5 0 2.25 2.25 0 00-4.5 0zm2.25.75a.75.75 0 110-1.5.75.75 0 010 1.5z" fill="#fff"
        fill-opacity="1" />
    <path fill-rule="evenodd" clip-rule="evenodd"
        d="M20.596 1.529c-.505-.504-1.263-.785-2.012-.957-.773-.178-1.658-.265-2.528-.301-1.743-.073-3.523.057-4.433.14a2.701 2.701 0 00-1.515.648A93.092 93.092 0 001.34 9.643c-1.256 1.403-1.27 3.498-.138 4.96a34.762 34.762 0 006.32 6.32c1.461 1.13 3.556 1.117 4.96-.139a93.082 93.082 0 008.584-8.768 2.7 2.7 0 00.647-1.514c.084-.91.213-2.69.14-4.433-.035-.87-.123-1.756-.3-2.529-.172-.749-.453-1.507-.957-2.011zm-8.836.376c.886-.081 2.59-.204 4.234-.136.823.035 1.607.116 2.255.265.672.154 1.088.357 1.286.556.198.198.401.613.556 1.286.149.648.23 1.431.264 2.255.068 1.644-.054 3.348-.136 4.233a1.201 1.201 0 01-.29.675 91.604 91.604 0 01-8.448 8.627c-.838.75-2.123.78-3.04.07a33.259 33.259 0 01-6.053-6.052c-.71-.917-.68-2.203.07-3.04a91.596 91.596 0 018.628-8.448c.196-.168.43-.268.674-.29z"
        fill="#fff" fill-opacity="1" />
</svg>