<svg width="23" height="22" fill="none" xmlns="http://www.w3.org/2000/svg">
    <path d="M10.375 16a1 1 0 011-1h.009a1 1 0 110 2h-.009a1 1 0 01-1-1z" fill="#fff" fill-opacity="1" />
    <path fill-rule="evenodd" clip-rule="evenodd"
        d="M2.625 9.34l-.73.701A.75.75 0 11.854 8.96L5.24 4.756c1.3-1.246 2.33-2.234 3.243-2.902.942-.69 1.844-1.104 2.893-1.104 1.049 0 1.95.414 2.893 1.104.914.668 1.944 1.656 3.243 2.902l4.383 4.203a.75.75 0 11-1.038 1.082l-.731-.7v3.215c0 1.838 0 3.294-.153 4.433-.158 1.172-.49 2.121-1.238 2.87-.749.748-1.698 1.08-2.87 1.238-1.14.153-2.595.153-4.433.153h-.112c-1.838 0-3.294 0-4.433-.153-1.172-.158-2.121-.49-2.87-1.238-.748-.749-1.08-1.698-1.238-2.87-.153-1.14-.153-2.595-.153-4.433V9.34zm3.612-3.463c1.349-1.293 2.307-2.21 3.131-2.813.806-.59 1.399-.814 2.007-.814.608 0 1.201.225 2.007.814.824.603 1.782 1.52 3.13 2.813l2.113 2.025V12.5c0 1.907-.002 3.261-.14 4.29-.135 1.005-.389 1.585-.812 2.008-.423.423-1.003.677-2.009.812-1.027.138-2.382.14-4.289.14-1.907 0-3.261-.002-4.29-.14-1.005-.135-1.585-.389-2.008-.812-.423-.423-.677-1.003-.812-2.009-.138-1.028-.14-2.382-.14-4.289V7.902l2.112-2.025z"
        fill="#fff" fill-opacity="1" />
</svg>