<svg width="25" height="24" fill="none" xmlns="http://www.w3.org/2000/svg">
    <path
        d="M12.625 4.75a1.25 1.25 0 100 2.5h.009a1.25 1.25 0 000-2.5h-.01zM11.37 12c0-.69.56-1.25 1.25-1.25h.01a1.25 1.25 0 010 2.5h-.01c-.69 0-1.25-.56-1.25-1.25zM6.625 16.75a1.25 1.25 0 100 2.5h.009a1.25 1.25 0 100-2.5h-.01zM11.37 18c0-.69.56-1.25 1.25-1.25h.01a1.25 1.25 0 010 2.5h-.01c-.69 0-1.25-.56-1.25-1.25zM17.375 18c0-.69.56-1.25 1.25-1.25h.009a1.25 1.25 0 010 2.5h-.01c-.69 0-1.25-.56-1.25-1.25zM17.375 12c0-.69.56-1.25 1.25-1.25h.009a1.25 1.25 0 010 2.5h-.01c-.69 0-1.25-.56-1.25-1.25zM18.625 4.75a1.25 1.25 0 100 2.5h.009a1.25 1.25 0 000-2.5h-.01zM5.375 12c0-.69.56-1.25 1.25-1.25h.009a1.25 1.25 0 110 2.5h-.01c-.69 0-1.25-.56-1.25-1.25zM6.625 4.75a1.25 1.25 0 100 2.5h.009a1.25 1.25 0 000-2.5h-.01z"
        fill="#fff" fill-opacity="1" />
</svg>