<svg width="25" height="24" fill="none" xmlns="http://www.w3.org/2000/svg">
    <path fill-rule="evenodd" clip-rule="evenodd"
        d="M12.875 1.25a5.25 5.25 0 100 10.5 5.25 5.25 0 000-10.5zM9.125 6.5a3.75 3.75 0 117.5 0 3.75 3.75 0 01-7.5 0zM19.104 15.08c-.163-.093-.307-.174-.423-.243a11.413 11.413 0 00-11.612 0c-.117.07-.26.15-.423.242-.713.402-1.79 1.01-2.528 1.733-.462.452-.9 1.047-.98 1.777-.085.776.253 1.504.932 2.15 1.172 1.117 2.578 2.011 4.396 2.011h8.818c1.818 0 3.224-.894 4.396-2.01.679-.647 1.017-1.375.932-2.151-.08-.73-.518-1.325-.98-1.777-.738-.723-1.816-1.33-2.528-1.733zM7.836 16.125a9.913 9.913 0 0110.078 0c.167.1.351.204.544.314.713.404 1.545.876 2.125 1.444.36.352.514.643.538.868.02.178-.025.472-.476.902-1.036.986-2.088 1.596-3.36 1.596h-8.82c-1.272 0-2.324-.61-3.36-1.596-.45-.43-.496-.724-.476-.902.024-.225.178-.516.538-.868.58-.568 1.412-1.04 2.125-1.444.192-.11.376-.214.544-.314z"
        fill="#fff" fill-opacity="1" />
</svg>